<svg width="48" height="42" viewBox="0 0 48 42" fill="none" xmlns="http://www.w3.org/2000/svg" xmlns:xlink="http://www.w3.org/1999/xlink">
<mask id="path-1-outside-1_279_1037" maskUnits="userSpaceOnUse" x="-0.316406" y="0.0371094" width="49" height="39" fill="black">
<rect fill="white" x="-0.316406" y="0.0371094" width="49" height="39"/>
<path fill-rule="evenodd" clip-rule="evenodd" d="M23.867 15.1288L32.9587 6.03711L42.0504 15.1288L32.9587 24.2205L32.9587 24.2206L23.867 33.3123L14.7753 24.2206L14.7753 24.2205L5.68359 15.1288L14.7753 6.03711L23.867 15.1288Z"/>
</mask>
<path fill-rule="evenodd" clip-rule="evenodd" d="M23.867 15.1288L32.9587 6.03711L42.0504 15.1288L32.9587 24.2205L32.9587 24.2206L23.867 33.3123L14.7753 24.2206L14.7753 24.2205L5.68359 15.1288L14.7753 6.03711L23.867 15.1288Z" fill="#E15A4D"/>
<path d="M23.867 15.1288L21.0386 17.9572L23.867 20.7856L26.6954 17.9572L23.867 15.1288ZM32.9587 6.03711L35.7871 3.20868L32.9587 0.380255L30.1302 3.20868L32.9587 6.03711ZM42.0504 15.1288L44.8788 17.9572L47.7072 15.1288L44.8788 12.3004L42.0504 15.1288ZM32.9587 24.2205L30.1302 21.3921L27.4731 24.0493L29.9593 26.867L32.9587 24.2205ZM32.9587 24.2206L35.7871 27.049L38.4443 24.3918L35.958 21.5741L32.9587 24.2206ZM23.867 33.3123L21.0386 36.1407L23.867 38.9691L26.6954 36.1407L23.867 33.3123ZM14.7753 24.2206L11.8625 21.4791L9.20283 24.305L11.9468 27.049L14.7753 24.2206ZM14.7753 24.2205L17.6881 26.962L20.3477 24.1361L17.6037 21.3921L14.7753 24.2205ZM5.68359 15.1288L2.85517 12.3004L0.0267396 15.1288L2.85517 17.9572L5.68359 15.1288ZM14.7753 6.03711L17.6037 3.20868L14.7753 0.380255L11.9469 3.20868L14.7753 6.03711ZM26.6954 17.9572L35.7871 8.86554L30.1302 3.20868L21.0386 12.3004L26.6954 17.9572ZM30.1302 8.86554L39.222 17.9572L44.8788 12.3004L35.7871 3.20868L30.1302 8.86554ZM39.222 12.3004L30.1302 21.3921L35.7871 27.049L44.8788 17.9572L39.222 12.3004ZM35.958 21.5741L35.958 21.574L29.9593 26.867L29.9593 26.8671L35.958 21.5741ZM26.6954 36.1407L35.7871 27.049L30.1303 21.3921L21.0386 30.4838L26.6954 36.1407ZM11.9468 27.049L21.0386 36.1407L26.6954 30.4838L17.6037 21.3921L11.9468 27.049ZM11.8625 21.4791L11.8625 21.4791L17.6881 26.962L17.6881 26.962L11.8625 21.4791ZM2.85517 17.9572L11.9469 27.049L17.6037 21.3921L8.51202 12.3004L2.85517 17.9572ZM11.9469 3.20868L2.85517 12.3004L8.51202 17.9572L17.6037 8.86554L11.9469 3.20868ZM26.6954 12.3004L17.6037 3.20868L11.9469 8.86554L21.0386 17.9572L26.6954 12.3004Z" fill="#EDEDED" mask="url(#path-1-outside-1_279_1037)"/>
<g filter="url(#filter0_d_279_1037)">
<path fill-rule="evenodd" clip-rule="evenodd" d="M23.867 15.1288L32.9587 6.03711L42.0504 15.1288L32.9587 24.2205L32.9587 24.2206L23.867 33.3123L14.7753 24.2206L14.7753 24.2205L5.68359 15.1288L14.7753 6.03711L23.867 15.1288Z" fill="#E15A4D"/>
</g>
<mask id="mask0_279_1037" style="mask-type:alpha" maskUnits="userSpaceOnUse" x="5" y="6" width="38" height="28">
<path fill-rule="evenodd" clip-rule="evenodd" d="M23.9209 15.0917L33.0126 6L42.1043 15.0917L33.0126 24.1834L33.0127 24.1835L23.9209 33.2752L14.8292 24.1835L14.8293 24.1834L5.73755 15.0917L14.8293 6L23.9209 15.0917Z" fill="#E15A4D"/>
</mask>
<g mask="url(#mask0_279_1037)">
<g style="mix-blend-mode:overlay">
<rect x="-5.5769" y="-13.1572" width="500" height="500" fill="url(#pattern0)"/>
</g>
</g>
<defs>
<filter id="filter0_d_279_1037" x="1.68359" y="6.03711" width="44.3667" height="35.2754" filterUnits="userSpaceOnUse" color-interpolation-filters="sRGB">
<feFlood flood-opacity="0" result="BackgroundImageFix"/>
<feColorMatrix in="SourceAlpha" type="matrix" values="0 0 0 0 0 0 0 0 0 0 0 0 0 0 0 0 0 0 127 0" result="hardAlpha"/>
<feOffset dy="4"/>
<feGaussianBlur stdDeviation="2"/>
<feComposite in2="hardAlpha" operator="out"/>
<feColorMatrix type="matrix" values="0 0 0 0 0 0 0 0 0 0 0 0 0 0 0 0 0 0 0.12 0"/>
<feBlend mode="normal" in2="BackgroundImageFix" result="effect1_dropShadow_279_1037"/>
<feBlend mode="normal" in="SourceGraphic" in2="effect1_dropShadow_279_1037" result="shape"/>
</filter>
<pattern id="pattern0" patternContentUnits="objectBoundingBox" width="2.3438" height="2.3438">
<use xlink:href="#image0_279_1037" transform="scale(0.0023438)"/>
</pattern>
</defs>
</svg>
