<?xml version="1.0" standalone="no"?>
<!DOCTYPE svg PUBLIC "-//W3C//DTD SVG 20010904//EN"
 "http://www.w3.org/TR/2001/REC-SVG-20010904/DTD/svg10.dtd">
<svg version="1.0" xmlns="http://www.w3.org/2000/svg"
 width="500.000000pt" height="500.000000pt" viewBox="0 0 500.000000 500.000000"
 preserveAspectRatio="xMidYMid meet">
<metadata>
Created by potrace 1.14, written by Peter Selinger 2001-2017
</metadata>
<g transform="translate(0.000000,500.000000) scale(0.100000,-0.100000)"
fill="#000000" stroke="none">
<path d="M2175 4943 c-118 -15 -234 -40 -385 -83 -172 -48 -178 -51 -338 -147
-114 -69 -161 -103 -160 -114 2 -11 -36 -45 -112 -99 -175 -125 -337 -256
-401 -325 -240 -257 -381 -474 -505 -775 -42 -102 -83 -216 -91 -255 -8 -38
-27 -128 -43 -200 -15 -71 -31 -166 -35 -210 -4 -44 -11 -101 -15 -127 -7 -48
-6 -125 4 -228 3 -30 8 -100 11 -155 10 -162 22 -231 69 -395 69 -238 119
-374 184 -501 125 -243 245 -401 472 -625 165 -162 240 -223 365 -297 210
-124 273 -155 453 -223 108 -41 224 -89 257 -107 l60 -32 395 0 c420 0 464 4
628 51 45 14 89 27 97 30 10 4 13 -1 9 -19 -2 -14 0 -29 6 -32 30 -18 227 63
413 171 32 19 61 34 66 34 4 0 20 14 37 31 16 17 69 59 119 92 88 60 147 110
315 273 231 222 373 391 465 549 31 55 69 114 84 131 15 16 65 113 110 214 46
102 94 202 107 222 13 21 33 77 45 125 12 53 32 107 50 135 17 25 30 55 31 65
1 20 -11 204 -17 273 -2 25 -7 74 -10 110 -34 420 -33 414 -86 583 -28 89 -65
209 -81 267 -22 74 -41 119 -66 153 -20 26 -40 47 -44 47 -13 0 -9 37 17 156
31 137 31 139 21 239 -10 100 -18 117 -54 111 -15 -3 -77 -8 -137 -11 l-111
-6 -34 36 c-19 20 -35 47 -36 62 -3 38 -94 406 -102 415 -4 4 -105 10 -225 13
l-219 6 -81 54 c-137 88 -291 160 -457 210 -344 105 -412 116 -760 114 -140
-1 -268 -4 -285 -6z"/>
</g>
</svg>
